<?xml version="1.0" encoding="UTF-8"?>
<svg width="25px" height="25px" viewBox="0 0 25 25" version="1.1" xmlns="http://www.w3.org/2000/svg" xmlns:xlink="http://www.w3.org/1999/xlink">
    <!-- Generator: Sketch 52.1 (67048) - http://www.bohemiancoding.com/sketch -->
    <title>account information@1x</title>
    <desc>Created with Sketch.</desc>
    <g id="Symbols" stroke="none" stroke-width="1" fill="none" fill-rule="evenodd">
        <g id="navigation" transform="translate(-1279.000000, -23.000000)" fill="#87B8F0" fill-rule="nonzero">
            <g id="Group-5" transform="translate(902.000000, 22.000000)">
                <g id="Group-3" transform="translate(377.000000, 1.000000)">
                    <g id="account-information">
                        <path d="M23.7056367,9.86957203 L21.9519833,9.57207724 C21.7693111,8.98230689 21.5344468,8.41341336 21.2473904,7.87061587 L22.2807933,6.42489562 C22.7192067,5.80902923 22.651357,4.96873695 22.1137787,4.43637787 L20.5584551,2.88105428 C20.2661795,2.58877871 19.8799582,2.4269833 19.4676409,2.4269833 C19.1440501,2.4269833 18.8361169,2.52614823 18.5751566,2.71403967 L17.1242171,3.74744259 C16.5605428,3.44994781 15.9707724,3.20464509 15.3601253,3.02197286 L15.0678497,1.28919624 C14.9425887,0.542849687 14.3006263,5.21920668e-05 13.5438413,5.21920668e-05 L11.3465553,5.21920668e-05 C10.5897704,5.21920668e-05 9.94780793,0.542849687 9.82254697,1.28919624 L9.51983299,3.06372651 C8.93528184,3.24639875 8.36638831,3.48648225 7.82359081,3.77875783 L6.38830898,2.74535491 C6.12734864,2.55746347 5.81419624,2.45829854 5.49060543,2.45829854 C5.0782881,2.45829854 4.6868476,2.62009395 4.39979123,2.91236952 L2.83924843,4.46769311 C2.30688935,5.00005219 2.23382046,5.84034447 2.67223382,6.45621086 L3.71607516,7.92280793 C3.42901879,8.47082463 3.1993737,9.03971816 3.02192067,9.62948852 L1.28914405,9.92176409 C0.542797495,10.0470251 -2.84217094e-14,10.6889875 -2.84217094e-14,11.4457724 L-2.84217094e-14,13.6430585 C-2.84217094e-14,14.3998434 0.542797495,15.0418058 1.28914405,15.1670668 L3.06367432,15.4697808 C3.24634656,16.0543319 3.48643006,16.6232255 3.77870564,17.166023 L2.75052192,18.5960856 C2.31210856,19.211952 2.37995825,20.0522443 2.91753653,20.5846033 L4.47286013,22.1399269 C4.7651357,22.4322025 5.15135699,22.5939979 5.56367432,22.5939979 C5.88726514,22.5939979 6.19519833,22.494833 6.45615866,22.3069415 L7.92275574,21.2631002 C8.44989562,21.5397182 9.00313152,21.7641441 9.57202505,21.9415971 L9.86430063,23.6952505 C9.98956159,24.4415971 10.631524,24.9843946 11.388309,24.9843946 L13.5908142,24.9843946 C14.3475992,24.9843946 14.9895616,24.4415971 15.1148225,23.6952505 L15.4123173,21.9415971 C16.0020877,21.7589248 16.5709812,21.5240605 17.1137787,21.2370042 L18.559499,22.2704071 C18.8204593,22.4582985 19.1336117,22.5574635 19.4572025,22.5574635 C19.8695198,22.5574635 20.2557411,22.3956681 20.5480167,22.1033925 L22.1033403,20.5480689 C22.6356994,20.0157098 22.7087683,19.1754175 22.2703549,18.5595511 L21.236952,17.1086117 C21.5240084,16.560595 21.7640919,15.9917015 21.9415449,15.4071503 L23.6951983,15.1148747 C24.4415449,14.9896138 24.9843424,14.3476514 24.9843424,13.5908664 L24.9843424,11.3935804 C24.9947808,10.6367954 24.4519833,9.99483299 23.7056367,9.86957203 Z M23.585595,13.5908664 C23.585595,13.6587161 23.5386221,13.7161273 23.4707724,13.7265658 L21.2787056,14.0919102 C21.0020877,14.1388831 20.782881,14.3424322 20.7150313,14.6086117 C20.5167015,15.3758351 20.2139875,16.1117432 19.8068894,16.7954593 C19.6659708,17.0355428 19.6764092,17.3330376 19.8382046,17.5626827 L21.1273486,19.3789666 C21.1638831,19.4311587 21.1586639,19.5094468 21.111691,19.5564196 L19.5563674,21.1117432 C19.519833,21.1482777 19.4832985,21.1534969 19.4572025,21.1534969 C19.4258873,21.1534969 19.3997912,21.1430585 19.3789144,21.1274008 L17.5678497,19.8382568 C17.3434238,19.6764614 17.0407098,19.666023 16.8006263,19.8069415 C16.1169102,20.2140397 15.3810021,20.5167537 14.6137787,20.7150835 C14.34238,20.7829332 14.1388309,21.0073591 14.0970772,21.2787578 L13.7265136,23.4708246 C13.7160752,23.5386743 13.6586639,23.5856472 13.5908142,23.5856472 L11.3935282,23.5856472 C11.3256785,23.5856472 11.2682672,23.5386743 11.2578288,23.4708246 L10.8924843,21.2787578 C10.8455115,21.0021399 10.6419624,20.7829332 10.3757829,20.7150835 C9.62943633,20.5219729 8.9091858,20.2244781 8.23590814,19.8382568 C8.1263048,19.7756263 8.00104384,19.7443111 7.88100209,19.7443111 C7.74008351,19.7443111 7.59394572,19.7860647 7.47390397,19.8747912 L5.64718163,21.1743737 C5.62108559,21.1900313 5.59498956,21.2004697 5.56889353,21.2004697 C5.5480167,21.2004697 5.50626305,21.1952505 5.4697286,21.1587161 L3.91440501,19.6033925 C3.86743215,19.5564196 3.86221294,19.4833507 3.89874739,19.4259395 L5.18267223,17.6253132 C5.34446764,17.3956681 5.35490605,17.0929541 5.21398747,16.8528706 C4.80688935,16.1743737 4.49373695,15.4384656 4.2954071,14.6712422 C4.2223382,14.4050626 4.00313152,14.2015136 3.73173278,14.1545407 L1.52400835,13.7787578 C1.45615866,13.7683194 1.4091858,13.7109081 1.4091858,13.6430585 L1.4091858,11.4457724 C1.4091858,11.3779228 1.45615866,11.3205115 1.52400835,11.3100731 L3.70041754,10.9447286 C3.97703549,10.8977557 4.20146138,10.6942067 4.26931106,10.4228079 C4.46242171,9.65558455 4.75991649,8.9144572 5.16179541,8.23074113 C5.30271399,7.99065762 5.28705637,7.69316284 5.12526096,7.46873695 L3.8256785,5.64201461 C3.78914405,5.58982255 3.79436326,5.51153445 3.84133612,5.46456159 L5.39665971,3.909238 C5.43319415,3.87270355 5.4697286,3.86748434 5.49582463,3.86748434 C5.52713987,3.86748434 5.55323591,3.87792276 5.57411273,3.89358038 L7.37473904,5.17750522 C7.60438413,5.33930063 7.90709812,5.34973904 8.14718163,5.20882046 C8.8256785,4.80172234 9.56158664,4.48856994 10.32881,4.29024008 C10.5949896,4.21717119 10.7985386,3.99796451 10.8455115,3.72656576 L11.2212944,1.51884134 C11.2317328,1.45099165 11.2891441,1.40401879 11.3569937,1.40401879 L13.5542797,1.40401879 C13.6221294,1.40401879 13.6795407,1.45099165 13.6899791,1.51884134 L14.0553236,3.69525052 C14.1022965,3.97186848 14.3058455,4.19629436 14.5772443,4.26414405 C15.3653445,4.4624739 16.1169102,4.7704071 16.8162839,5.18272443 C17.0563674,5.32364301 17.3538622,5.31320459 17.5835073,5.15140919 L19.3841336,3.85704593 C19.4102296,3.84138831 19.4363257,3.8309499 19.4624217,3.8309499 C19.4832985,3.8309499 19.5250522,3.8361691 19.5615866,3.87270355 L21.1169102,5.42802714 C21.1638831,5.475 21.1691023,5.54806889 21.1325678,5.60548017 L19.8434238,7.41654489 C19.6816284,7.64097077 19.67119,7.94368476 19.8121086,8.18376827 C20.2192067,8.86748434 20.5219207,9.60339248 20.7202505,10.3706159 C20.7881002,10.6420146 21.0125261,10.8455637 21.2839248,10.8873173 L23.4759916,11.257881 C23.5438413,11.2683194 23.5908142,11.3257307 23.5908142,11.3935804 L23.5908142,13.5908664 L23.585595,13.5908664 Z" id="Shape"></path>
                        <path d="M12.4947808,7.09817328 C9.51983299,7.09817328 7.10334029,9.51466597 7.10334029,12.4896138 C7.10334029,15.4645616 9.51983299,17.8810543 12.4947808,17.8810543 C15.4697286,17.8810543 17.8862213,15.4645616 17.8862213,12.4896138 C17.8862213,9.51466597 15.4697286,7.09817328 12.4947808,7.09817328 Z M12.4947808,16.4718685 C10.2974948,16.4718685 8.5125261,14.6868998 8.5125261,12.4896138 C8.5125261,10.2923278 10.2974948,8.50735908 12.4947808,8.50735908 C14.6920668,8.50735908 16.4770355,10.2923278 16.4770355,12.4896138 C16.4770355,14.6868998 14.6920668,16.4718685 12.4947808,16.4718685 Z" id="Shape"></path>
                    </g>
                </g>
            </g>
        </g>
    </g>
</svg>