<svg xmlns="http://www.w3.org/2000/svg" width="24" height="22" viewBox="0 0 24 22">
    <g fill="#1D8ED0" fill-rule="nonzero">
        <path d="M17.975 8.994a.468.468 0 0 0-.313-.305l-3.334-.982-1.965-2.868a.468.468 0 0 0-.772 0L9.626 7.707l-3.335.982a.468.468 0 0 0-.238.734l2.12 2.756-.096 3.474a.468.468 0 0 0 .624.454l3.276-1.165 3.275 1.165a.468.468 0 0 0 .624-.454l-.095-3.474 2.12-2.756a.468.468 0 0 0 .074-.43zm-3.037 2.746a.468.468 0 0 0-.097.298l.081 2.959-2.788-.992a.468.468 0 0 0-.314 0l-2.789.992.082-2.96a.468.468 0 0 0-.097-.297L7.21 9.394l2.839-.837a.468.468 0 0 0 .253-.184l1.674-2.442 1.673 2.442c.061.088.15.153.254.184l2.839.837-1.805 2.346z"/>
        <path d="M15.26 9.876a.468.468 0 0 0-.312-.305l-1.627-.48-.958-1.398a.468.468 0 0 0-.772 0l-.959 1.399-1.627.48a.468.468 0 0 0-.238.733L9.8 11.65l-.047 1.696a.468.468 0 0 0 .625.453l1.598-.568 1.598.568a.468.468 0 0 0 .624-.453l-.047-1.696 1.034-1.344a.468.468 0 0 0 .075-.43zm-1.95 1.335a.468.468 0 0 0-.098.298l.033 1.179-1.111-.395a.468.468 0 0 0-.314 0l-1.111.395.032-1.18a.468.468 0 0 0-.097-.297l-.72-.935 1.132-.334a.468.468 0 0 0 .254-.184l.667-.973.667.973c.06.089.15.154.253.184l1.132.334-.72.935z"/>
        <path d="M23.72 10.287l-.454-.262a4.842 4.842 0 0 0-.993-.414c-.5-.147-.985-.2-1.435-.157.51-.222.927-.535 1.23-.924.431-.556.653-1.3.642-2.155a4.824 4.824 0 0 0-.13-1.067l-.13-.507a.468.468 0 0 0-.453-.352h-.525a4.837 4.837 0 0 0-1.566.29c.3-.701.385-1.397.244-2.024C19.8 1.16 18.174.357 17.99.27l-.475-.222a.468.468 0 0 0-.559.126l-.334.404a4.848 4.848 0 0 0-.571.91c-.373.769-.489 1.537-.335 2.224.344 1.528 1.922 2.33 2.15 2.44l.37.195a7.506 7.506 0 0 1 1.295 4.236 7.518 7.518 0 0 1-2.217 5.352 7.518 7.518 0 0 1-5.337 2.216 7.518 7.518 0 0 1-5.338-2.216 7.518 7.518 0 0 1-2.217-5.352c0-1.526.448-2.988 1.295-4.236l.37-.196C6.29 6.054 7.56 5.41 8.08 4.194a7.533 7.533 0 0 1 4.545-1.054.468.468 0 0 0 .08-.932 8.477 8.477 0 0 0-4.403.804 3.759 3.759 0 0 0-.4-1.523 4.851 4.851 0 0 0-.571-.911L6.997.174a.468.468 0 0 0-.56-.126L5.965.27c-.184.087-1.81.89-2.16 2.445-.141.627-.057 1.323.243 2.024a4.834 4.834 0 0 0-1.567-.29h-.523c-.214 0-.4.145-.453.352l-.13.507c-.02.08-.123.506-.13 1.067-.012.854.21 1.6.642 2.155.302.39.72.702 1.23.924-.45-.042-.936.01-1.436.157a4.844 4.844 0 0 0-.993.414l-.453.262a.468.468 0 0 0-.217.53l.141.505c.055.196.578 1.933 2.054 2.534.34.14.717.21 1.118.21.134 0 .27-.008.409-.024-.41.188-.804.476-1.164.854a4.814 4.814 0 0 0-.653.854l-.262.454a.468.468 0 0 0 .078.568l.374.366c.203.2 1.289 1.194 2.67 1.194.126 0 .253-.009.376-.026.489-.067.969-.272 1.415-.602a3.834 3.834 0 0 0-.581 1.321 4.831 4.831 0 0 0-.139 1.067v.523c0 .214.145.4.352.453l.507.13a4.838 4.838 0 0 0 1.13.132c.827 0 1.55-.222 2.092-.642.494-.383.864-.952 1.082-1.656a8.654 8.654 0 0 0 .947.055h.036c.316-.001.629-.02.939-.055.217.704.588 1.273 1.081 1.656.542.42 1.265.642 2.092.642h.063c.559-.008.987-.11 1.067-.131l.507-.13a.468.468 0 0 0 .352-.454v-.523c0-.083-.007-.522-.138-1.067a3.835 3.835 0 0 0-.582-1.321c.447.33.927.535 1.415.602.124.017.25.026.377.026 1.38 0 2.466-.995 2.67-1.194l.373-.366a.468.468 0 0 0 .078-.568l-.261-.453a4.813 4.813 0 0 0-.653-.855 3.835 3.835 0 0 0-1.165-.854c.139.015.275.023.41.023.4 0 .777-.07 1.117-.209 1.476-.602 2-2.338 2.054-2.534l.141-.504a.468.468 0 0 0-.216-.531zM4.716 2.92c.257-1.14 1.589-1.776 1.645-1.802l.146-.069.102.124c.01.012.246.301.452.724.28.576.37 1.132.263 1.61-.256 1.14-1.588 1.776-1.645 1.802a.48.48 0 0 0-.02.01l-.127.067-.087-.115a3.961 3.961 0 0 1-.465-.741c-.28-.576-.37-1.133-.264-1.61zM2.625 7.956c-.3-.386-.454-.929-.446-1.568a3.95 3.95 0 0 1 .101-.848l.04-.155h.161c.016 0 .388 0 .846.112.581.14 1.045.397 1.348.745A8.39 8.39 0 0 0 3.7 8.678c-.464-.162-.831-.408-1.075-.722zm-.06 5.034c-1.081-.441-1.489-1.86-1.506-1.92l-.043-.155.139-.08c.014-.008.337-.193.789-.326.575-.17 1.106-.178 1.543-.027v.102c0 .858.126 1.696.37 2.494-.481.09-.926.061-1.291-.088zm2.466 4.39a1.843 1.843 0 0 1-.25.016c-1.056 0-1.976-.888-2.014-.926l-.115-.113.08-.14c.008-.013.194-.333.52-.676.413-.432.867-.705 1.32-.793a8.545 8.545 0 0 0 1.625 2.06c-.373.321-.771.517-1.166.572zm4.33 2.569c-.376.291-.901.445-1.519.445h-.05a3.97 3.97 0 0 1-.847-.101l-.156-.04v-.161c0-.016.001-.388.112-.846.141-.581.398-1.045.746-1.347a8.4 8.4 0 0 0 2.436.975c-.162.463-.408.83-.722 1.075zm7.803.304l-.155.04a3.971 3.971 0 0 1-.848.1c-.638.01-1.182-.145-1.568-.444-.314-.244-.56-.612-.723-1.075a8.4 8.4 0 0 0 2.436-.975c.349.302.606.766.746 1.347.111.458.113.83.113.846v.16zm1.358-15a.525.525 0 0 0-.014.018l-.086.115-.128-.067a.451.451 0 0 0-.02-.01c-.056-.026-1.388-.663-1.645-1.803-.107-.477-.016-1.033.264-1.609.205-.423.442-.712.451-.724l.103-.124.145.068c.057.027 1.389.663 1.645 1.803.107.477.016 1.034-.263 1.61a3.955 3.955 0 0 1-.452.723zm.757.99c.303-.349.766-.606 1.348-.746.458-.111.83-.113.846-.113h.16l.04.156c.004.015.095.376.101.848.009.64-.145 1.182-.445 1.568-.244.314-.612.56-1.075.722a8.39 8.39 0 0 0-.975-2.436zm1.422 9.298c.326.343.512.663.52.677l.08.14-.114.112c-.039.038-.958.926-2.015.926-.084 0-.168-.005-.25-.016-.394-.055-.792-.25-1.165-.572a8.545 8.545 0 0 0 1.625-2.06c.453.088.907.36 1.32.793zm2.193-4.471c-.017.06-.424 1.479-1.506 1.92-.366.15-.81.179-1.291.088a8.533 8.533 0 0 0 .37-2.596c.436-.151.967-.142 1.542.027.452.133.776.318.79.326l.138.08-.043.155z"/>
        <path d="M14.917 2.944a.495.495 0 0 0-.07-.168.471.471 0 0 0-.72-.071.478.478 0 0 0-.128.24.468.468 0 1 0 .918 0z"/>
    </g>
</svg>
