<?xml version="1.0" encoding="UTF-8"?>
<svg width="16px" height="20px" viewBox="0 0 16 20" version="1.1" xmlns="http://www.w3.org/2000/svg" xmlns:xlink="http://www.w3.org/1999/xlink">
    <!-- Generator: Sketch 52.1 (67048) - http://www.bohemiancoding.com/sketch -->
    <title>copy@1x</title>
    <desc>Created with Sketch.</desc>
    <g id="Page-1" stroke="none" stroke-width="1" fill="none" fill-rule="evenodd" opacity="0.98999995">
        <g id="Campaign-1---Campaign-Case-Code-Pixel" transform="translate(-714.000000, -511.000000)" fill="#D3D1D1" fill-rule="nonzero">
            <g id="Group-2" transform="translate(354.000000, 468.000000)">
                <g id="copy" transform="translate(360.000000, 43.000000)">
                    <path d="M10.8673469,3.48571429 L1.60204082,3.48571429 C0.732653061,3.48571429 0.0265306122,4.19183673 0.0265306122,5.06122449 L0.0265306122,18.355102 C0.0265306122,19.2244898 0.732653061,19.9306122 1.60204082,19.9306122 L10.8673469,19.9306122 C11.7367347,19.9306122 12.4428571,19.2244898 12.4428571,18.355102 L12.4428571,5.06122449 C12.4387755,4.19183673 11.7326531,3.48571429 10.8673469,3.48571429 Z M11.3367347,18.3510204 C11.3367347,18.6122449 11.1244898,18.8244898 10.8632653,18.8244898 L1.59795918,18.8244898 C1.33673469,18.8244898 1.1244898,18.6122449 1.1244898,18.3510204 L1.1244898,5.06122449 C1.1244898,4.8 1.33673469,4.5877551 1.59795918,4.5877551 L10.8632653,4.5877551 C11.1244898,4.5877551 11.3367347,4.8 11.3367347,5.06122449 L11.3367347,18.3510204 Z" id="Shape"></path>
                    <path d="M14.4102041,0 L5.14489796,0 C4.2755102,0 3.56938776,0.706122449 3.56938776,1.5755102 C3.56938776,1.88163265 3.81428571,2.12653061 4.12040816,2.12653061 C4.42653061,2.12653061 4.67142857,1.88163265 4.67142857,1.5755102 C4.67142857,1.31428571 4.88367347,1.10204082 5.14489796,1.10204082 L14.4102041,1.10204082 C14.6714286,1.10204082 14.8836735,1.31428571 14.8836735,1.5755102 L14.8836735,14.8693878 C14.8836735,15.1306122 14.6714286,15.3428571 14.4102041,15.3428571 C14.1040816,15.3428571 13.8591837,15.5877551 13.8591837,15.8938776 C13.8591837,16.2 14.1040816,16.444898 14.4102041,16.444898 C15.2795918,16.444898 15.9857143,15.7387755 15.9857143,14.8693878 L15.9857143,1.5755102 C15.9857143,0.706122449 15.2795918,0 14.4102041,0 Z" id="Shape"></path>
                </g>
            </g>
        </g>
    </g>
</svg>