<svg xmlns="http://www.w3.org/2000/svg" width="12" height="16" viewBox="0 0 12 16">
    <path fill="#FFF" fill-rule="nonzero" d="M11.966 9.368c-.183-2.386-1.294-3.882-2.275-5.201C8.784 2.945 8 1.89 8 .334a.334.334 0 0 0-.527-.271C6 1.116 4.773 2.89 4.343 4.585c-.297 1.18-.337 2.505-.342 3.38-1.36-.29-1.668-2.323-1.67-2.345a.335.335 0 0 0-.476-.253c-.072.035-1.75.887-1.848 4.292A6.007 6.007 0 0 0 6 16h.018A6.007 6.007 0 0 0 12 10c0-.165-.034-.631-.034-.631zM6 15.333c-1.103 0-2-.956-2-2.13 0-.04 0-.08.003-.13.013-.496.107-.834.21-1.059.194.415.54.797 1.1.797.185 0 .334-.149.334-.333 0-.475.01-1.022.128-1.516.105-.438.357-.905.675-1.278.141.485.418.877.687 1.26.386.549.785 1.115.855 2.082.004.057.008.115.008.177 0 1.174-.897 2.13-2 2.13z"/>
</svg>
