<?xml version="1.0" encoding="UTF-8"?>
<svg width="39px" height="41px" viewBox="0 0 39 41" version="1.1" xmlns="http://www.w3.org/2000/svg" xmlns:xlink="http://www.w3.org/1999/xlink">
    <!-- Generator: Sketch 52.1 (67048) - http://www.bohemiancoding.com/sketch -->
    <title>password@1x</title>
    <desc>Created with Sketch.</desc>
    <g id="Page-1" stroke="none" stroke-width="1" fill="none" fill-rule="evenodd">
        <g id="3" transform="translate(-771.000000, -114.000000)" fill="#E0E2E7">
            <g id="Group" transform="translate(546.000000, 114.000000)">
                <path d="M258.734177,13.875 L256.379747,13.875 L256.379747,10 C256.379747,4.6525 251.105823,0.3125 244.607595,0.3125 C238.109367,0.3125 232.835443,4.6525 232.835443,10 L232.835443,13.875 L230.481013,13.875 C227.891139,13.875 225.772152,15.61875 225.772152,17.75 L225.772152,37.125 C225.772152,39.25625 227.891139,41 230.481013,41 L258.734177,41 C261.324051,41 263.443038,39.25625 263.443038,37.125 L263.443038,17.75 C263.443038,15.61875 261.324051,13.875 258.734177,13.875 L258.734177,13.875 Z M244.607595,31.3125 C242.017722,31.3125 239.898734,29.56875 239.898734,27.4375 C239.898734,25.30625 242.017722,23.5625 244.607595,23.5625 C247.197468,23.5625 249.316456,25.30625 249.316456,27.4375 C249.316456,29.56875 247.197468,31.3125 244.607595,31.3125 L244.607595,31.3125 Z M251.906329,13.875 L237.308861,13.875 L237.308861,10 C237.308861,6.686875 240.581519,3.99375 244.607595,3.99375 C248.633671,3.99375 251.906329,6.686875 251.906329,10 L251.906329,13.875 L251.906329,13.875 Z" id="password"></path>
            </g>
        </g>
    </g>
</svg>