<?xml version="1.0" encoding="UTF-8"?>
<svg width="25px" height="25px" viewBox="0 0 25 25" version="1.1" xmlns="http://www.w3.org/2000/svg" xmlns:xlink="http://www.w3.org/1999/xlink">
    <!-- Generator: Sketch 52.1 (67048) - http://www.bohemiancoding.com/sketch -->
    <title>my brands@1x</title>
    <desc>Created with Sketch.</desc>
    <g id="Symbols" stroke="none" stroke-width="1" fill="none" fill-rule="evenodd">
        <g id="navigation" transform="translate(-902.000000, -22.000000)" fill="#87B8F0" fill-rule="nonzero">
            <g id="Group-5" transform="translate(902.000000, 22.000000)">
                <g id="Group-2">
                    <g id="my-brands">
                        <circle id="Oval" cx="20.4640909" cy="11.8072727" r="1"></circle>
                        <circle id="Oval" cx="4.10045455" cy="11.8072727" r="1"></circle>
                        <circle id="Oval" cx="5.46409091" cy="13.1709091" r="1"></circle>
                        <circle id="Oval" cx="8.19136364" cy="13.1709091" r="1"></circle>
                        <circle id="Oval" cx="6.82772727" cy="14.5345455" r="1"></circle>
                        <circle id="Oval" cx="9.555" cy="14.5345455" r="1"></circle>
                        <circle id="Oval" cx="10.9186364" cy="15.8981818" r="1"></circle>
                        <circle id="Oval" cx="13.6459091" cy="15.8981818" r="1"></circle>
                        <circle id="Oval" cx="15.0095455" cy="14.5345455" r="1"></circle>
                        <circle id="Oval" cx="12.2822727" cy="17.2618182" r="1"></circle>
                        <circle id="Oval" cx="16.3731818" cy="13.1709091" r="1"></circle>
                        <circle id="Oval" cx="19.1004545" cy="13.1709091" r="1"></circle>
                        <circle id="Oval" cx="17.7368182" cy="14.5345455" r="1"></circle>
                        <path d="M20.7086364,14.9072727 L24.9786364,12.4677273 L20.5895455,9.97545455 L24.9786364,7.46772727 L12.4895455,0.375454545 L0,7.46772727 L4.38909091,9.97545455 L0,12.4677273 L4.38909091,14.9754545 L0,17.4677273 L12.4895455,24.6031818 L24.9790909,17.4677273 L20.59,14.9754545 L20.6222727,14.9568182 C20.6540909,14.945 20.6804545,14.9259091 20.7086364,14.9072727 Z M12.4895455,1.42045455 L23.1422727,7.47 L19.6709091,9.45363636 L12.49,13.5563636 L1.83681818,7.47 L12.4895455,1.42045455 Z M5.05863636,10.6404545 C5.13227273,10.7918182 5.28454545,10.8981818 5.46409091,10.8981818 C5.58681818,10.8981818 5.69681818,10.8486364 5.77863636,10.7695455 L6.80681818,11.3568182 C6.56590909,11.3681818 6.37318182,11.5636364 6.37318182,11.8072727 C6.37318182,12.0581818 6.57681818,12.2618182 6.82772727,12.2618182 C7.07863636,12.2618182 7.28227273,12.0581818 7.28227273,11.8072727 C7.28227273,11.7286364 7.25727273,11.6586364 7.22227273,11.5940909 L11.9177273,14.2768182 C11.865,14.3509091 11.8277273,14.4368182 11.8277273,14.5345455 C11.8277273,14.7854545 12.0313636,14.9890909 12.2822727,14.9890909 C12.5331818,14.9890909 12.7368182,14.7854545 12.7368182,14.5345455 C12.7368182,14.5113636 12.7272727,14.4918182 12.7236364,14.4695455 L17.2927273,11.8590909 C17.3195455,12.0845455 17.5040909,12.2613636 17.7368182,12.2613636 C17.9877273,12.2613636 18.1913636,12.0577273 18.1913636,11.8068182 C18.1913636,11.6590909 18.1163636,11.5336364 18.0068182,11.4509091 L19.0077273,10.8790909 C19.0386364,10.8859091 19.0677273,10.8977273 19.1004545,10.8977273 C19.3022727,10.8977273 19.4672727,10.7640909 19.5268182,10.5822727 L19.6722727,10.4990909 L23.1422727,12.4695455 L22.2409091,12.9845455 C22.1695455,12.8268182 22.0122727,12.7159091 21.8281818,12.7159091 C21.5772727,12.7159091 21.3736364,12.9195455 21.3736364,13.1704545 C21.3736364,13.2686364 21.4113636,13.3545455 21.4640909,13.4286364 L19.6709091,14.4531818 L16.7672727,16.1122727 C16.8027273,16.0477273 16.8281818,15.9768182 16.8281818,15.8977273 C16.8281818,15.6468182 16.6245455,15.4431818 16.3736364,15.4431818 C16.1227273,15.4431818 15.9190909,15.6468182 15.9190909,15.8977273 C15.9190909,16.1418182 16.1127273,16.3372727 16.3540909,16.3481818 L15.3254545,16.9359091 C15.2436364,16.8568182 15.1331818,16.8068182 15.01,16.8068182 C14.7590909,16.8068182 14.5554545,17.0104545 14.5554545,17.2613636 C14.5554545,17.2977273 14.5681818,17.33 14.5763636,17.3640909 L12.49,18.5559091 L9.98227273,17.1231818 C9.92318182,16.9409091 9.75772727,16.8068182 9.55545455,16.8068182 C9.52227273,16.8068182 9.49272727,16.8190909 9.46181818,16.8259091 L8.46136364,16.2545455 C8.57090909,16.1713636 8.64636364,16.0463636 8.64636364,15.8981818 C8.64636364,15.6472727 8.44272727,15.4436364 8.19181818,15.4436364 C7.95909091,15.4436364 7.77409091,15.6213636 7.74772727,15.8468182 L3.17772727,13.2363636 C3.18090909,13.2140909 3.19090909,13.1940909 3.19090909,13.1709091 C3.19090909,12.92 2.98727273,12.7163636 2.73636364,12.7163636 C2.62772727,12.7163636 2.53227273,12.7595455 2.45409091,12.8231818 L1.83636364,12.4704545 L5.05863636,10.6404545 Z M23.1418182,17.47 L12.4890909,23.5563636 L1.83681818,17.47 L5.30636364,15.4995455 L12.4895455,19.6031818 L19.6722727,15.4995455 L23.1418182,17.47 Z" id="Shape"></path>
                    </g>
                </g>
            </g>
        </g>
    </g>
</svg>