<?xml version="1.0" encoding="UTF-8"?>
<svg width="32px" height="25px" viewBox="0 0 32 25" version="1.1" xmlns="http://www.w3.org/2000/svg" xmlns:xlink="http://www.w3.org/1999/xlink">
    <!-- Generator: Sketch 52.1 (67048) - http://www.bohemiancoding.com/sketch -->
    <title>my campaigns@1x</title>
    <desc>Created with Sketch.</desc>
    <g id="Symbols" stroke="none" stroke-width="1" fill="none" fill-rule="evenodd">
        <g id="navigation" transform="translate(-1069.000000, -22.000000)" fill="#87B8F0" fill-rule="nonzero">
            <g id="Group-5" transform="translate(902.000000, 22.000000)">
                <g id="Group" transform="translate(167.000000, 0.000000)">
                    <g id="my-campaigns">
                        <path d="M31.0644183,11.88125 L29.3293936,11.88125 C28.9876856,11.88125 28.7106436,12.1582921 28.7106436,12.5 C28.7106436,12.8417698 28.9877475,13.11875 29.3293936,13.11875 L31.0644183,13.11875 C31.4061262,13.11875 31.6831683,12.8417079 31.6831683,12.5 C31.6831683,12.1582921 31.4061262,11.88125 31.0644183,11.88125 Z" id="Shape"></path>
                        <path d="M31.0012995,8.57741337 C30.8303837,8.28143564 30.452104,8.18007426 30.1560644,8.35092822 L29.0199876,9.00680693 C28.7240099,9.17766089 28.6225866,9.55606436 28.7935025,9.85204208 C28.9081064,10.0506188 29.1160891,10.1615718 29.3299505,10.1615718 C29.434901,10.1615718 29.5413366,10.1348391 29.6387376,10.0785891 L30.7748144,9.42264851 C31.0707921,9.25179455 31.1722153,8.87339109 31.0012995,8.57741337 Z" id="Shape"></path>
                        <path d="M30.7748144,15.5773515 L29.6387376,14.9214109 C29.342698,14.750495 28.9644183,14.8519183 28.7935025,15.147896 C28.6225866,15.4438738 28.7240099,15.8222772 29.0199876,15.9931312 L30.1560644,16.6490718 C30.2535272,16.7053218 30.359901,16.7320545 30.4648515,16.7320545 C30.6787129,16.7320545 30.8866337,16.6211015 31.0012995,16.4225866 C31.1722153,16.1266089 31.070854,15.7482054 30.7748144,15.5773515 Z" id="Shape"></path>
                        <path d="M26.2578589,3.9612005 C25.6471535,1.29634901 24.8201733,0.00099009901 23.7295792,0.00099009901 C23.5197401,0.00099009901 23.3198639,0.0494430693 23.1292079,0.14585396 L0.379207921,9.70123762 C0.149443069,9.79764851 0,10.0224629 0,10.2716584 L0,14.7267327 C0,14.9758663 0.149443069,15.2006807 0.37914604,15.2972153 L3.7164604,16.6991955 C3.71844059,16.7000619 3.72048267,16.7008663 3.72246287,16.7017327 L5.32141089,17.3733292 L5.32141089,21.2554455 C5.32141089,22.2278465 6.1125,23.0189356 7.08490099,23.0189356 L12.7156559,23.0189356 C13.6880569,23.0189356 14.479146,22.2278465 14.479146,21.2554455 L14.479146,21.2203589 L23.1301361,24.8545173 C23.3205446,24.9506188 23.5201733,24.998948 23.7296411,24.998948 C24.8202351,24.998948 25.6472153,23.7035891 26.2579208,21.0387376 C26.7822401,18.7508663 27.0709777,15.7184406 27.0709777,12.4999381 C27.0709158,9.28149752 26.7821782,6.24907178 26.2578589,3.9612005 Z M13.2415223,21.2555074 C13.2415223,21.5455446 13.0055693,21.7814356 12.7155941,21.7814356 L7.08483911,21.7814356 C6.79480198,21.7814356 6.55891089,21.5454827 6.55891089,21.2555074 L6.55891089,17.893255 L13.2415842,20.7005569 L13.2415842,21.2555074 L13.2415223,21.2555074 Z M4.57883663,15.7191832 L4.57883663,12.4901609 C4.57883663,12.1483911 4.30173267,11.8714109 3.96008663,11.8714109 C3.61837871,11.8714109 3.34133663,12.148453 3.34133663,12.4901609 L3.34133663,15.1993193 L1.23756188,14.3155322 L1.23756188,10.6829208 L21.7586015,2.06373762 C21.5556312,2.59269802 21.3702351,3.22438119 21.2013614,3.9612005 C21.1821782,4.0447401 21.1634901,4.12964109 21.1449257,4.21516089 L14.1290223,6.85581683 C13.8091584,6.97617574 13.6475248,7.33304455 13.7678218,7.65284653 C13.8612005,7.90092822 14.0967822,8.05377475 14.3470297,8.05377475 C14.4194307,8.05377475 14.4930693,8.04090347 14.5649134,8.01392327 L20.8800124,5.63700495 C20.560396,7.64269802 20.3883045,10.0157178 20.3883045,12.4999381 C20.3883045,15.7184406 20.6770421,18.7508663 21.2013614,21.0387376 C21.3702351,21.775495 21.555755,22.4070545 21.7586015,22.9360767 L4.57883663,15.7191832 Z M21.6761139,10.2210396 C22.7701733,10.4073639 23.6058787,11.3615718 23.6058787,12.5078589 C23.6058787,13.6539604 22.7704827,14.6079208 21.6767946,14.7945545 C21.6430693,14.0473391 21.6258045,13.279703 21.6258045,12.5 C21.6258045,11.7257426 21.6428837,10.9633663 21.6761139,10.2210396 Z M25.051547,20.7624381 C24.4865718,23.2278465 23.8555074,23.7615099 23.7295792,23.7615099 C23.7244431,23.7615099 23.718255,23.7602723 23.7115099,23.7584158 C23.7014851,23.7535272 23.6917079,23.7482673 23.6813119,23.7438738 L23.6665842,23.7376856 C23.4589109,23.6125 22.9075495,22.9439356 22.4076114,20.7623762 C22.0998144,19.4193069 21.8766708,17.802104 21.7493193,16.0345297 C23.492698,15.8063738 24.8433787,14.3123762 24.8433787,12.5078589 C24.8433787,10.7029084 23.4920792,9.20866337 21.7482054,8.98100248 C21.8753094,7.20730198 22.098948,5.58459158 22.4076114,4.23756188 C22.9072401,2.05730198 23.458354,1.38818069 23.6662748,1.2625 L23.7209158,1.23954208 C23.723948,1.23910891 23.7270421,1.2384901 23.7296411,1.2384901 C23.8555693,1.2384901 24.4866337,1.77215347 25.0516089,4.23756188 C25.5556931,6.43743812 25.8334158,9.37178218 25.8334158,12.5 C25.8334158,15.6282178 25.555755,18.5625 25.051547,20.7624381 Z" id="Shape"></path>
                        <path d="M12.3456064,8.18935644 C12.2256807,7.86936881 11.8693069,7.70711634 11.5491337,7.82685644 L11.5349629,7.83217822 C11.2149134,7.95204208 11.0526609,8.30860149 11.1724629,8.62865099 C11.2655322,8.87716584 11.5014233,9.03056931 11.7520421,9.03056931 C11.8241337,9.03056931 11.8974629,9.01782178 11.9689356,8.99108911 L11.9831064,8.98576733 C12.3031559,8.86596535 12.4654703,8.50934406 12.3456064,8.18935644 Z" id="Shape"></path>
                    </g>
                </g>
            </g>
        </g>
    </g>
</svg>