<?xml version="1.0" encoding="UTF-8"?>
<svg width="17px" height="17px" viewBox="0 0 17 17" version="1.1" xmlns="http://www.w3.org/2000/svg" xmlns:xlink="http://www.w3.org/1999/xlink">
    <!-- Generator: Sketch 52.1 (67048) - http://www.bohemiancoding.com/sketch -->
    <title>search@1x</title>
    <desc>Created with Sketch.</desc>
    <g id="Page-1" stroke="none" stroke-width="1" fill="none" fill-rule="evenodd" opacity="0.149999991">
        <g id="Dashboard/Home-2" transform="translate(-865.000000, -188.000000)">
            <g id="Search-box" transform="translate(850.000000, 175.000000)">
                <g id="search" transform="translate(13.000000, 11.000000)">
                    <path d="M14.1497999,12.6918239 L13.3819325,12.6918239 L13.109777,12.4293882 C14.0623213,11.3213265 14.6357919,9.88279017 14.6357919,8.31789594 C14.6357919,4.82847341 11.8073185,2 8.31789594,2 C4.82847341,2 2,4.82847341 2,8.31789594 C2,11.8073185 4.82847341,14.6357919 8.31789594,14.6357919 C9.88279017,14.6357919 11.3213265,14.0623213 12.4293882,13.109777 L12.6918239,13.3819325 L12.6918239,14.1497999 L17.5517439,19 L19,17.5517439 L14.1497999,12.6918239 Z M8.31789594,12.6918239 C5.8976558,12.6918239 3.94396798,10.7381361 3.94396798,8.31789594 C3.94396798,5.8976558 5.8976558,3.94396798 8.31789594,3.94396798 C10.7381361,3.94396798 12.6918239,5.8976558 12.6918239,8.31789594 C12.6918239,10.7381361 10.7381361,12.6918239 8.31789594,12.6918239 Z" id="Shape" fill="#000000" fill-rule="nonzero"></path>
                    <polygon id="Shape" points="0 0 24 0 24 24 0 24"></polygon>
                </g>
            </g>
        </g>
    </g>
</svg>